<?xml version="1.0" encoding="iso-8859-1"?>
<!-- Generator: Adobe Illustrator 16.0.0, SVG Export Plug-In . SVG Version: 6.00 Build 0)  -->
<!DOCTYPE svg PUBLIC "-//W3C//DTD SVG 1.1//EN" "http://www.w3.org/Graphics/SVG/1.1/DTD/svg11.dtd">
<svg version="1.1" id="Capa_1" xmlns="http://www.w3.org/2000/svg" xmlns:xlink="http://www.w3.org/1999/xlink" x="0px" y="0px"
	 width="484.156px" height="484.157px" viewBox="0 0 484.156 484.157" style="enable-background:new 0 0 484.156 484.157;"
	 xml:space="preserve">
<g>
	<g id="icons_7_">
		<g>
			<circle cx="186.344" cy="68.798" r="63.354"/>
			<path d="M277.518,292.057c-21.595-7.252-40.989-15.573-57.994-24.83c-0.305-1.459-0.704-2.912-1.208-4.348
				c-4.78-13.558-17.594-22.628-31.97-22.628h-6.558c-12.619-10.863-22.653-22.546-29.896-34.918
				c-4.995-8.533-7.973-17.84-10.003-23.1c-2.03-5.259,0.106-9.761,0.602-12.071c0.755-3.52,1.153-7.173,1.153-10.919
				c0-28.665-23.237-51.902-51.902-51.902c-19.792,0-36.993,11.081-45.747,27.375C27.659,156.933-12.1,219.953,3.6,289.174
				c5.373,23.688,26.415,39.758,49.722,39.756c3.738,0,14.082-2.543,6.194,3.807c-7.888,6.35-28.16,22.669-28.16,22.669
				c-14.582,11.739-16.887,33.078-5.146,47.661c6.697,8.319,16.516,12.643,26.425,12.643c7.461-0.001,14.973-2.453,21.237-7.495
				c0,0,102.643-82.057,106.132-85.44c3.489-3.385,7.771-0.69,9.848,0.434c20.133,10.889,42.695,20.546,67.505,28.881
				c3.343,1.123,6.742,1.655,10.084,1.655c13.229,0,25.566-8.356,30.011-21.59C303.019,315.577,294.094,297.625,277.518,292.057z"/>
			<path d="M483.995,332.59c-0.253-0.59-0.776-1.022-1.402-1.158c-10.447-2.291-20.062-3.453-28.576-3.453
				c-19.004,0-33.503,5.789-43.098,17.209c-7.919,9.425-12.551,22.41-14.109,39.589c-3.093,1.492-6.618,3.806-10.135,7.411
				c-0.934,0.958-1.831,1.979-2.701,3.053c-2.842-8.573-9.166-16.109-13.295-20.377c-1.192-12.662-4.637-22.258-10.499-29.235
				c-7.163-8.526-17.991-12.849-32.181-12.849c-6.359,0-13.538,0.867-21.339,2.578c-0.468,0.103-0.858,0.425-1.047,0.865
				c-0.188,0.441-0.153,0.945,0.096,1.354c3.345,5.517,5.948,11.401,8.466,17.093c6.874,15.54,13.368,30.218,32.896,30.218
				c5.475,0,11.688-1.137,18.893-3.455c5.548,6.003,12.569,15.824,11.387,24.297c-1.887,3.829-3.526,8.066-4.903,12.712
				c-2.22,7.484-3.761,16.045-4.625,25.587c-34.714,1.233-48.209,18.53-53.21,28.994c-0.588,1.231-0.504,2.681,0.224,3.835
				c0.729,1.154,1.999,1.854,3.364,1.854h107.218c0.004,0,0.006,0,0.01,0c2.196,0,3.978-1.78,3.978-3.976
				c0-0.878-0.285-1.689-0.768-2.349c-10.479-16.348-23.668-27.452-52.835-28.369c2.457-25.849,9.785-39.162,16.285-45.986
				c2.8-2.939,5.54-4.796,7.877-5.972c11.034,3.833,20.381,5.697,28.517,5.697c26.149,0,34.846-19.656,44.052-40.466
				c3.371-7.623,6.857-15.503,11.338-22.89C484.201,333.854,484.248,333.18,483.995,332.59z"/>
		</g>
	</g>
</g>
<g>
</g>
<g>
</g>
<g>
</g>
<g>
</g>
<g>
</g>
<g>
</g>
<g>
</g>
<g>
</g>
<g>
</g>
<g>
</g>
<g>
</g>
<g>
</g>
<g>
</g>
<g>
</g>
<g>
</g>
</svg>
